# xmcd
#
# Track frame offsets:
#	150
#	2025
#	18836
#	34807
#	44366
#	57627
#	71624
#	86240
#	100216
#	115615
#	129305
#	146750
#	162728
#	179192
#	193112
#	207541
#	221232
#	236265
#	250670
#	264727
#
# Disc length: 3719 seconds
#
# Revision: 1
# Processed by: cddbd v1.5.2PL0 Copyright (c) Steve Scherf et al.
# Submitted via: audiograbber 1.83.01
#
DISCID=320e8514
DTITLE=Various Artist - Oktoberfest 2017 CD1 2732
DYEAR=1900
DGENRE=
TTITLE0=Wiesen Festzeltkapelle 'Bavaria' - Ein Prosit Der Gemütlichkeit
TTITLE1=Lorenz Büffel - Johnny Däpp
TTITLE2=Libero5 - Sierra Madre
TTITLE3=Schnitte - Servus, Grüezi Und Hallo
TTITLE4=Gaudi Express - Zillertaler Hochzeitsmarch
TTITLE5=Buddy and Lorenz Büffel - Die Krüge Hoch
TTITLE6=Ikke Hüftgold and Vfl Eschhofen - Modeste Song
TTITLE7=Honk! - Hallo Helmut (Andere Farbe)
TTITLE8=Vroni - Mit 'Nem Edelweiss Im Haar
TTITLE9=Spassrebellen Feat. Sünsberg Buam - A Rindfieh Mag Koa Bier
TTITLE10=Marco Mzee - Kufsteiner Lied
TTITLE11=Willi Herren - Alkohol Blues
TTITLE12=Mia Julia - M.i.a. Meine Gang
TTITLE13=Schäfer Heinrich - Ladykiller
TTITLE14=Krümel - Blau Blüht Der Enzian
TTITLE15=Ina Colada - Wodka Mit Irgendwas
TTITLE16=Andy Luxx - Uschi, Otze, Erna (Wir Feiern Auch Mit Werner)
TTITLE17=Die Mööötis - Ein Hoch Auf Das Leben
TTITLE18=Tim Toupet - Wir Sind Alle Gestört Aber Geil
TTITLE19=Tobee - Ab Jetzt Wird Morgen Scheisse
EXTD=
EXTT0=
EXTT1=
EXTT2=
EXTT3=
EXTT4=
EXTT5=
EXTT6=
EXTT7=
EXTT8=
EXTT9=
EXTT10=
EXTT11=
EXTT12=
EXTT13=
EXTT14=
EXTT15=
EXTT16=
EXTT17=
EXTT18=
EXTT19=
PLAYORDER=
